<?xml version="1.0" encoding="UTF-8"?>
<svg id="Layer_1" data-name="Layer 1" xmlns="http://www.w3.org/2000/svg" viewBox="0 0 1016.72 821.8">
  <defs>
    <style>
      .cls-1, .cls-2 {
        fill: none;
      }

      .cls-3 {
        fill: #ffbd00;
      }

      .cls-4 {
        stroke: #1b1b1c;
      }

      .cls-4, .cls-5, .cls-6 {
        fill: #fff;
      }

      .cls-4, .cls-5, .cls-2 {
        stroke-linecap: round;
        stroke-linejoin: round;
        stroke-width: 6px;
      }

      .cls-7 {
        fill: #f7ccb7;
      }

      .cls-8 {
        fill: #dbdbdb;
      }

      .cls-9 {
        fill: #262c33;
      }

      .cls-5, .cls-2 {
        stroke: #262c33;
      }

      .cls-10 {
        fill: #fe7624;
      }
    </style>
  </defs>
  <circle class="cls-7" cx="548.64" cy="362.91" r="274.83"/>
  <g>
    <g>
      <path class="cls-10" d="M701.85,580.49c2.7,8.12,7.99,16.75,15.54,21.23.18.11.36.21.54.32.32.18.63.34.96.49,7.25,3.49,18.73,3.15,26.3,2.54,13.54-1.12,27.09-4.53,38.67-11.64,7.26-4.45,13.68-10.47,18.34-17.56.35-.53.69-1.07,1.02-1.62,2.29-3.78,4.06-7.83,5.21-12.11,4.77-17.77-1.6-37.06,2.82-54.93.12-.47.24-.94.38-1.42.15-.55.31-1.1.49-1.65,1-3.2,2.31-6.36,3.78-9.48.25-.53.51-1.06.77-1.59,10.03-20.35,26.35-39.46,11.98-62.45-2.3-3.7-5.32-7.01-8.92-9.42-.46-.3-.92-.6-1.4-.87-.77-.45-1.56-.85-2.37-1.21-5.95-2.61-12.72-2.65-19.18-1.9-4.89.57-9.82,1.62-14.47,3.32-.53.19-1.04.39-1.55.6-5.62,2.23-10.76,5.45-14.85,9.88-4.44,4.8-7.32,10.66-9.71,16.82-4.89,12.61-7.72,26.57-17.45,35.73-5.03,4.72-11.44,7.66-17.08,11.62-.46.32-.92.65-1.36.97-.43.33-.85.66-1.27,1-2.15,1.74-4.08,3.69-5.81,5.78-.39.47-.77.96-1.14,1.46-8.91,11.75-11.94,27.85-12.98,42.92-.78,11.14-.77,22.57,2.74,33.17Z"/>
      <path class="cls-8" d="M732.97,557.04c.04.2.14.34.27.44-3.46,7.75-6.63,15.62-9.4,23.65-2.35,6.79-4.46,13.66-6.44,20.59-2.73,9.47-5.24,19.01-7.89,28.48-.29,1.03,1.3,1.53,1.59.5,2.63-9.37,5.11-18.8,7.8-28.17,2.4-8.33,4.95-16.62,7.91-24.75.18.05.37.05.59-.06,4.78-2.44,10.16-2.87,15.44-2.94,19.78-.28,39.61.28,59.37,1.09.35-.53.69-1.07,1.02-1.62-5.44-.23-10.87-.42-16.33-.58-10.76-.31-21.52-.49-32.27-.55-5.09-.04-10.22-.19-15.31.11-4.06.23-8.09.9-11.81,2.61,3.86-10.37,8.32-20.5,13.19-30.44.19-.13.3-.33.3-.6,6.47-13.14,13.67-25.95,21.19-38.53.13.12.3.2.55.18,16.28-1.19,32.61-1.41,48.91-.67.15-.55.31-1.1.49-1.65-16.35-.77-32.74-.55-49.06.63,1.92-3.2,3.88-6.39,5.83-9.56.13.05.26.09.43.07,15.47-1.68,31.08-1.88,46.57-.61.25-.53.51-1.06.77-1.59-15.56-1.33-31.22-1.14-46.76.49.9-1.45,1.8-2.92,2.7-4.36,14.61-23.41,30.31-46.13,47.11-68-.46-.3-.92-.6-1.4-.87-7.98,10.38-15.69,20.94-23.16,31.67-1.22,1.75-2.42,3.51-3.62,5.26-1.88-12.51-4.97-24.82-9.23-36.73-.53.19-1.04.39-1.55.6,4.43,12.33,7.58,25.12,9.42,38.12-16.96,24.81-32.92,50.5-46.76,77.16-1.04,1.99-2.06,4-3.07,6.01-4.55-16.35-10.8-32.2-18.68-47.24-.46.32-.92.65-1.36.97,8.05,15.42,14.42,31.68,18.96,48.48-1.72,3.49-3.39,7.01-5,10.54-.96-4.65-2.15-9.27-3.59-13.8-2.81-8.82-6.62-17.22-10.79-25.48-2.19-4.34-4.42-8.65-6.65-12.97-.39.47-.77.96-1.14,1.46.14.26.27.52.41.78,4.32,8.38,8.79,16.71,12.45,25.4,3.57,8.51,6.24,17.4,8.03,26.46Z"/>
    </g>
    <path class="cls-10" d="M364.66,514.34c.06.31.1.61.17.93-.18-.28-.37-.55-.55-.83-2.5.63-5.43,1.6-6.49,1.75-3.42.46-6.78.39-10.18.6-7.42.47-14.7,1.4-22.16,1.37-14.56-.07-29.11-2.03-43.16-5.86-4.26-1.16-8.86-2.78-11.1-6.58,18.66-.78,37.32-1.57,55.99-2.35,6.11-.26,12.28-.51,18.28.62,5.51,1.03,10.56,3.49,15.49,6.15-7.05-7.63-14.51-14.88-22.31-21.75-3.93.8-8.72,2.49-10.99,2.88-5.87,1.01-11.77,1.86-17.7,2.35-11.34.93-22.18-.59-32.61-4.8-1.14-.46-2.28-.95-3.41-1.48-5.62-2.61-10.89-6.24-14.59-11.21,25.11,2.24,51.45,1.99,75.79,9.21-.48-.41-.95-.84-1.44-1.25-3.59-3.03-7.28-5.94-11-8.79-7.2-2.47-14.48-4.83-21.53-7.46-9.02-3.37-17.82-10.11-25.47-15.86-5.24-3.94-10.43-8.39-13.14-14.36,13.28,1.06,25.01,5.58,36.72,11.63,11.88,6.14,21.85,18.07,30.18,28.42-.8-.29-1.61-.56-2.41-.84,2.6,2.05,5.17,4.15,7.7,6.29-1.74-2.09-3.37-4.24-4.69-6.48-2.53-4.29-4.09-9.11-6.55-13.47-4.01-7.11-8.01-14.2-11.69-21.5-1.77-3.52-3.49-7.06-5.16-10.63-.91-1.95-3.08-9.89-4.84-10.78,11.4,5.8,20.1,16,26.09,27.3,3.3,6.22,5.95,12.85,8.01,19.58,2.04,6.69,4.03,13.5,5.69,20.32.7.25,1.4.48,2.09.74-.51-.19-1.19-.25-1.97-.23.12.51.24,1.02.36,1.53,5.89,5.3,11.58,10.81,17.04,16.55-1.81-3.52-3.05-7.22-3.04-11.48.04-9.23-2.18-18.61-3.56-27.73-.85-5.62-1.7-11.25-3.02-16.79-1.98-8.34-4.98-16.4-7.98-24.43.93,2.49,5.79,5.76,7.59,7.96,2.6,3.2,4.92,6.63,6.95,10.22,3.95,7,6.77,14.63,8.36,22.5,1.59,7.81,2.08,16.03,1.01,23.95-.98,7.33-2.13,14.06-1.25,21.26.25.27.51.54.75.81,1.04.57,2.08,1.14,3.12,1.69-.3-.16-.9-.14-1.67-.02,7.67,8.65,14.87,17.73,21.52,27.2-3-5.95-6.64-13.57-6.95-14.93-1.85-8.18-1.72-16.02-1.91-24.36-.33-14.58-1.55-29.13-3.64-43.56,3.71,2.54,6.23,6.46,8.31,10.44,6.24,11.96,9.28,25.53,8.94,39-.17,6.82-1.97,12.39-3.47,18.8-1.39,5.92-.6,12.65,1.41,18.55,4.6,6.77,8.97,13.72,13.01,20.85,2.16,3.81,4.21,7.68,6.2,11.58.6-6.64-3.17-14.78-3.03-21.18.18-8.18.56-16.48.65-24.72.07-6.92.15-13.85-.41-20.75-.77-9.44-2.73-18.89-1.76-28.31-.1.95,4.11,5.32,4.78,6.4,1.54,2.49,2.85,5.13,3.94,7.85,1.74,4.32,4.21,8.38,5.72,12.72,3.64,10.48,2.8,22.37.55,33.04-2.52,11.99-7,23.47-10.28,35.28.06.12.12.25.18.37.25.16.48.26.64.28-.17-.02-.35-.02-.52-.04,4.28,8.46,8.2,17.1,11.67,25.93.35.89-1.08,1.34-1.43.44-3.55-9.02-7.56-17.86-11.96-26.49-7.4-.59-14.81-.96-22.23-1.04-7.55-.08-14.74-2.01-22.01-4.02-10.52-2.92-20-6.72-29.56-11.68-4.03-2.09-8.2-3.66-12.17-5.83-.79-.43-1.57-.89-2.34-1.38-2.28-1.44-4.48-3.01-6.6-4.68-1-.79-3.87-4.24-5-4.33,18.72,1.57,37.3,4.85,55.44,9.77,9.07,2.46,18.02,5.34,26.83,8.61,4.1,1.52,7.08,3.48,10.61,6.02,1.02.73,3.34,3.38,5.45,5.57-4.79-9.11-10.03-17.98-15.71-26.56-15.37-2.68-31.38-1.67-46.95-4.17-15.81-2.55-31.29-7.1-45.94-13.58,1.76.78,8.67-1.86,10.8-2.18,3.86-.59,7.75-.98,11.64-1.18,8.03-.41,16.1,0,24.04,1.21,8.76,1.34,17.5,3.28,25.79,6.47,4.53,1.74,12.07,4.09,16.87,7.93-7.02-10.11-14.65-19.8-22.84-28.99-.02,0-.03,0-.05.01Z"/>
  </g>
  <polyline class="cls-1" points="911.54 0 911.54 725.81 185.73 725.81"/>
  <g>
    <g>
      <path class="cls-3" d="M697.03,189.13c-1.41,5.29-4.79,9.71-9.29,12.35,4.21,2.46,7.44,6.49,9,11.32.11.1.23.19.34.28.07-.06.15-.12.22-.18,1.54-4.88,4.8-8.94,9.03-11.42-4.5-2.64-7.89-7.06-9.29-12.35Z"/>
      <path class="cls-6" d="M314.76,295.92c-1.86,7.01-6.36,12.87-12.32,16.37,5.58,3.27,9.87,8.6,11.93,15.01.15.13.3.25.45.37.09-.08.2-.16.29-.24,2.04-6.47,6.36-11.85,11.98-15.14-5.97-3.49-10.46-9.36-12.32-16.37Z"/>
      <path class="cls-3" d="M841.24,528.5c-1.36,5.09-4.62,9.35-8.95,11.89,4.05,2.37,7.17,6.25,8.67,10.9.11.09.22.18.33.27.07-.06.14-.12.21-.18,1.49-4.7,4.62-8.61,8.7-11-4.34-2.54-7.6-6.8-8.95-11.89Z"/>
      <path class="cls-6" d="M436.5,104.87c-1.02,3.85-3.49,7.07-6.77,8.99,3.06,1.79,5.42,4.72,6.55,8.24.08.07.17.14.25.2.05-.05.11-.09.16-.13,1.12-3.55,3.49-6.51,6.58-8.31-3.28-1.92-5.74-5.14-6.77-8.99Z"/>
    </g>
    <g>
      <path class="cls-6" d="M430.36,179.33h-141.62c1.47-6.97,7.67-12.21,15.08-12.21,1.77,0,3.47.31,5.06.86,1.46-10.32,10.32-18.25,21.05-18.25,3.73,0,7.24.96,10.29,2.65,5.16-8.6,14.57-14.36,25.32-14.36,12.97,0,23.97,8.36,27.93,19.99.97-.19,1.98-.3,3-.3,6.96,0,12.84,4.62,14.76,10.96,1.68-.73,3.53-1.13,5.48-1.13,6.95,0,12.69,5.13,13.65,11.8Z"/>
      <path class="cls-6" d="M748.79,354.64h92.45c-.96-4.55-5.01-7.97-9.85-7.97-1.16,0-2.27.2-3.3.56-.96-6.74-6.74-11.92-13.74-11.92-2.44,0-4.72.63-6.72,1.73-3.37-5.61-9.51-9.37-16.53-9.37-8.46,0-15.65,5.46-18.23,13.05-.63-.13-1.29-.19-1.96-.19-4.55,0-8.38,3.01-9.63,7.15-1.1-.48-2.31-.74-3.58-.74-4.53,0-8.28,3.35-8.91,7.7Z"/>
    </g>
  </g>
  <polyline class="cls-1" points="185.73 725.81 911.54 725.81 911.54 0"/>
  <g id="support">
    <line id="line" class="cls-2" x1="3" y1="767.01" x2="1013.72" y2="764.01"/>
  </g>
  <path class="cls-10" d="M567.81,302.7l1.15.98c6.88,5.82,17.53,5.09,23.78-1.63l17.46-18.78c6.25-6.73,5.74-16.9-1.15-22.72l-1.15-.98c-6.88-5.82-17.53-5.09-23.78,1.63l-17.46,18.78c-6.25,6.73-5.74,16.9,1.15,22.72Z"/>
  <g id="body">
    <path id="clothing" class="cls-9" d="M784.81,572.91c-3.89,0-7.72.23-11.5.67-20.56-28.41-44.16-52.56-68.96-67.84-64.58-39.77-153.28-28.38-236.05,2.24-56.89,21.05-129.01,88.83-175.25,136.89-60.31,4.53-106.6,45.56-103.83,92.49.61,10.24,3.5,19.92,8.27,28.78l202.3,1.34c.35-.55.69-1.1,1.02-1.65l300.04-1.03c.33.45.66.9,1,1.34l166.13-.29c15.38-20.39,24.61-46.52,24.61-75.02,0-65.13-48.26-117.93-107.78-117.93Z"/>
    <g id="clothing_lines" data-name="clothing lines">
      <path class="cls-6" d="M706.58,507.43c-76.34,47.32-144.96,48.36-189.37,40.74-41.17-7.06-70.83-22.94-80.53-29.12-1.65.93-3.3,1.88-4.96,2.86,7.92,5.45,38.91,23.34,83.69,31.19,14.63,2.56,29.38,3.84,44.16,3.84s30.13-1.33,45.13-3.99c36.21-6.42,72.02-20.67,106.46-42.32-1.52-1.1-3.05-2.17-4.58-3.21Z"/>
      <path class="cls-6" d="M438.56,551.28c15.5,74.25-3.49,128.99-22.36,162.03-17.49,30.63-38.66,49.58-46.36,55.5.26,1.57.54,3.16.84,4.76,6.61-4.71,29.76-24.14,48.92-57.4,6.26-10.87,11.54-22.2,15.81-33.93s7.65-24.29,9.87-36.96c5.36-30.59,4.4-63.12-2.83-96.7-1.31.89-2.61,1.79-3.87,2.71Z"/>
      <path class="cls-6" d="M701.67,546.43c-14.92,71.46,3.36,124.16,21.52,155.96,16.84,29.48,37.21,47.72,44.62,53.41-.25,1.51-.52,3.04-.81,4.58-6.36-4.53-28.65-23.23-47.09-55.25-6.02-10.46-11.1-21.37-15.21-32.66-4.18-11.5-7.36-23.38-9.5-35.57-5.16-29.44-4.23-60.75,2.73-93.07,1.27.86,2.51,1.72,3.73,2.61Z"/>
      <path class="cls-6" d="M710.28,584.37c9.79-13.75,21.91-21.49,36.01-22.99,6.53-.7,12.01.18,15.26.95-1.3-1.68-2.62-3.33-3.95-4.96-3.2-.41-7.14-.61-11.54-.16-10.61,1.08-26.02,6.26-39.18,24.74-.67.94-.45,2.24.49,2.91.37.26.79.39,1.21.39.65,0,1.29-.3,1.7-.88Z"/>
      <path class="cls-6" d="M715.54,629.76s.03,0,.04,0c1.07,0,1.94-.85,1.96-1.92.11-5.77,2.44-18.82,10.46-31.12,9.31-14.29,23.01-23.1,40.7-26.22-.86-1.18-1.72-2.36-2.59-3.52-17.68,3.6-31.95,13.09-41.4,27.59-7.95,12.2-10.94,25.5-11.09,33.19-.02,1.08.84,1.98,1.92,2Z"/>
      <path class="cls-6" d="M317.54,623.94c-10.93-.41-21.4.59-29.17,2.23-2.6,2.61-5.15,5.19-7.64,7.72,9.55-5.24,63.97-11.78,86.44,13.73.51.58,1.22.88,1.94.88.61,0,1.22-.21,1.71-.64,1.07-.94,1.17-2.57.23-3.65-14.46-16.42-39.74-19.75-53.52-20.27Z"/>
      <g>
        <path class="cls-6" d="M270.44,642.89s.07,0,.15-.02c-.07,0-.15.01-.22.02.02,0,.05,0,.07,0Z"/>
        <path class="cls-6" d="M361.83,660.92c-30.42-22.96-68.27-24.33-84.32-23.71-1.81,1.86-3.6,3.71-5.34,5.52,9.19-.75,53.25-2.81,86.55,22.32.47.35,1.01.52,1.55.52.78,0,1.56-.35,2.06-1.03.86-1.14.63-2.76-.51-3.62Z"/>
      </g>
    </g>
    <path id="hand" class="cls-4" d="M230.54,763.17s28.21-83.52,107.7-68.36c79.48,15.16,188.2,47.74,188.2,47.74v20.94l-295.9-.31Z"/>
    <g id="hand_II" data-name="hand II">
      <path class="cls-6" d="M858.05,454.7s-6.35-3.17-7.19-10.55c-.84-7.38,4.1-39.21,12.09-43.65,7.99-4.44,44.4-24.21,51.12-23.75,6.72.45,9.52,58.9-56.02,77.95Z"/>
      <path class="cls-5" d="M861.91,404.06c13.61-47.63,24.75-58.27,31.16-53.63,5.82,4.21-6.06,34.54-9.49,50.3"/>
      <path id="hand_II-2" data-name="hand II" class="cls-5" d="M921.95,393.69c6.82-11.08,18.08-10.53,12.2,8.35-5.73,18.4-9.99,42.4-20.75,53.24-10.76,10.84-14.63,15.69-14.63,15.69,0,0-21.5,80.34-33.74,147.14-17.69,96.57-51.05,115.18-82.22,104.11-31.13-11.05-36.94-54.73,5.63-139.6,42.57-84.88,65.03-134.34,65.03-134.34"/>
      <path class="cls-5" d="M854.19,449.81c-6.17-4.18-5.43-28.47-12.36-39.06-8.63-13.19-17.03-26.86-1.1-24.81,13.66,1.76,18.01,13.77,21.18,18.12"/>
      <path class="cls-5" d="M913.99,413.89s12.11-29.49,16.17-43.14c4.45-14.93-11.23-17.03-18.74,4.35"/>
      <path class="cls-5" d="M899.78,406.14s23.83-54,13.17-58.81c-9.72-4.38-17.13,15.32-29.37,53.4"/>
    </g>
  </g>
  <g id="body-2" data-name="body">
    <g id="hand_II-3" data-name="hand II">
      <path class="cls-6" d="M468.49,729.04s1.48-6.94,8.41-9.6,38.99-5.83,45.29.79c6.3,6.62,34.54,36.94,35.78,43.56,1.24,6.62-54.65,23.95-89.48-34.75Z"/>
      <path class="cls-5" d="M518.49,720.12c49.52,1.27,62.6,9.39,59.72,16.76-2.62,6.68-34.96,2.77-51.07,3.38"/>
      <path id="hand_II-4" data-name="hand II" class="cls-5" d="M543.55,775.66c12.43,3.83,14.71,14.87-5.04,13.9-19.25-.95-43.55.93-56.74-6.78-13.19-7.71-18.85-10.24-18.85-10.24,0,0-83.16-.73-150.9,4.12-97.93,7.01-124.28-20.63-121.36-53.58,2.92-32.9,42.1-37.84,136.89-32.23,87.37,5.17,145.31,30.22,146.03,32.16"/>
      <path class="cls-5" d="M472.26,724.08c2.51-7.02,26.21-12.38,34.73-21.73,10.61-11.66,21.75-23.21,23.75-7.26,1.71,13.67-8.83,20.88-12.25,25.04"/>
      <path class="cls-5" d="M522,773s31.58,4.35,45.81,4.87c15.57.57,13.68-15.13-8.9-17.06"/>
      <path class="cls-5" d="M525.94,757.3s58.25,9.57,60.23-1.95c1.81-10.51-19.12-12.75-59.04-15.08"/>
    </g>
  </g>
  <g id="head">
    <path id="neck" class="cls-5" d="M509.94,445.35l3.34,60.9s-5.66,32.86,39.99,26.77c45.46-6.07,39.88-32.99,39.88-32.99l-14.08-75.64-69.14,20.96Z"/>
    <path id="ear" class="cls-5" d="M596.55,347.68s35.31-13.25,36.68,23.53c1.37,36.77-36.68,27.24-36.68,27.24"/>
    <path id="face" class="cls-5" d="M505.45,289.86h60.6c18.53,0,33.58,15.05,33.58,33.58v71.16c0,38.23-31.04,69.26-69.26,69.26h0c-38.23,0-69.26-31.04-69.26-69.26v-60.41c0-24.47,19.87-44.34,44.34-44.34Z"/>
    <path id="nose" class="cls-2" d="M509.19,353.05l.91,55.84s4.11,5.94,10.73-6.17"/>
    <path id="mouth" class="cls-2" d="M509.19,420.77c5.02,5.88,16.84,4.91,28.55-2.74,0,0,4.57,14.96-18.16,17.24"/>
    <path id="brow" class="cls-2" d="M531.17,335.06c.69-.17,8.05-10.79,19.36-1.71"/>
    <ellipse id="eye_II" data-name="eye II" class="cls-9" cx="550.53" cy="369.49" rx="4.28" ry="6.62"/>
    <ellipse id="eye" class="cls-9" cx="487.92" cy="371.21" rx="4.28" ry="6.62"/>
    <path id="brow_II" data-name="brow II" class="cls-2" d="M474.24,334.57c.69-.14,10.01-12.92,19.41-.84"/>
    <g id="hair_shape" data-name="hair shape">
      <path class="cls-9" d="M547.63,274.8c-16.77.22-29.5,1.07-37.12,2.45,0,0,0,0,0,0-61.62,14.02-51.66,59.69-51.66,59.69,0,0,30.13,5.74,54.67-30.58,0,0,33.69,27.49,83.48,38.57.8-.19,1.68-.44,2.62-.71v2.52c2.93-.76,7.63-1.65,12.6-1.32-.54-18.01-3.76-40.7-18.6-55.34-10.54-10.41-26.02-15.55-45.99-15.29Z"/>
    </g>
    <g id="glasses">
      <circle class="cls-2" cx="554.3" cy="371.21" r="31.52"/>
      <line class="cls-2" x1="501.54" y1="370.35" x2="522.09" y2="370.35"/>
      <line class="cls-2" x1="581.85" y1="355.9" x2="599.63" y2="345.85"/>
      <circle class="cls-2" cx="468.99" cy="371.21" r="31.52"/>
    </g>
  </g>
  <path class="cls-9" d="M595.53,272.54c-18.32-17.56-21.62-97.62,40.07-143.07,62.45-46.01,101.71,14.31,110.15,29.96,8.44,15.65,11.1,56.01-41.77,87-52.87,30.99-87.53,46.17-108.45,26.11Z"/>
  <g>
    <g>
      <path class="cls-6" d="M657.44,365.54c-6.04-9.2-9.43-19.54-9.43-30.47,0-38.61,42.4-69.91,94.66-69.91s94.62,31.3,94.62,69.91-42.36,69.91-94.62,69.91c-25.34,0-48.32-7.34-65.29-19.34l-32.61,8.29,12.67-28.38Z"/>
      <path class="cls-9" d="M657.44,365.54c-26.32-41.13,5.41-81.59,46.29-94.52,24.36-8.08,51.27-8.26,75.8-.78,66.82,20.61,81.62,90.21,15.29,123.58-18.53,8.97-39.45,12.44-59.9,11.22-20.43-1.25-40.87-7.35-57.68-19.22.85.09-32.59,8.12-32.45,8.21,0,0-.22.05-.22.05l.09-.21,12.77-28.34h0ZM657.44,365.54c-.09-.16-12.52,29.08-12.7,28.28,0,0,32.58-8.4,32.58-8.4l.1-.03.09.06c41.09,28.29,105.83,25.84,141.75-9.97,33.89-35.22,15.09-80.19-25.74-98.88-18.46-8.77-39.27-12.11-59.6-10.78-20.31,1.39-40.62,7.55-57.25,19.5-26.69,18.66-38.03,51.69-19.23,80.23h0Z"/>
    </g>
    <g>
      <path class="cls-9" d="M705.46,323.23v25.98h-5.01v-11.09h-11.78v11.09h-5.05v-25.98h5.05v10.5h11.78v-10.5h5.01Z"/>
      <path class="cls-9" d="M728.92,344.78v4.43h-18.04v-25.98h17.71v4.43h-12.66v6.26h10.94v4.1h-10.94v6.77h12.99Z"/>
      <path class="cls-9" d="M732.87,349.21v-25.98h5.05v21.55h13.25v4.43h-18.3Z"/>
      <path class="cls-9" d="M754.24,349.21v-25.98h5.05v21.55h13.25v4.43h-18.3Z"/>
      <path class="cls-9" d="M785.05,349.39c-1.9,0-3.63-.37-5.18-1.12-1.55-.74-2.88-1.73-3.99-2.96-1.11-1.23-1.97-2.64-2.58-4.23-.61-1.59-.91-3.21-.91-4.87s.32-3.39.97-4.98c.65-1.59,1.54-2.99,2.67-4.21,1.13-1.22,2.48-2.19,4.04-2.91,1.56-.72,3.26-1.08,5.09-1.08s3.59.38,5.14,1.15c1.55.77,2.87,1.77,3.97,3.02,1.1,1.24,1.95,2.66,2.56,4.25.61,1.59.92,3.2.92,4.83,0,1.73-.32,3.38-.95,4.96-.63,1.57-1.51,2.96-2.64,4.17-1.12,1.21-2.46,2.17-4.02,2.89-1.56.72-3.26,1.08-5.09,1.08ZM777.51,336.22c0,1.12.17,2.21.51,3.26.34,1.05.84,1.98,1.48,2.78.65.8,1.44,1.45,2.38,1.94.94.49,2,.73,3.2.73s2.3-.25,3.24-.75c.94-.5,1.73-1.16,2.38-2,.65-.83,1.13-1.76,1.47-2.8.33-1.04.49-2.09.49-3.16s-.18-2.21-.53-3.26c-.35-1.05-.85-1.98-1.5-2.78-.65-.8-1.44-1.44-2.38-1.92-.94-.48-2-.71-3.17-.71s-2.3.25-3.26.75c-.95.5-1.75,1.16-2.38,1.98-.64.82-1.12,1.75-1.45,2.78-.33,1.04-.49,2.09-.49,3.17Z"/>
      <path class="cls-9" d="M802.11,339.44v-16.47h4.9v16.47h-4.9ZM802.11,349.21v-5.53h4.9v5.53h-4.9Z"/>
    </g>
  </g>
</svg>