<?xml version="1.0" encoding="UTF-8"?>
<svg xmlns="http://www.w3.org/2000/svg" viewBox="0 0 2500 2000">
  <defs>
    <style>
      .cls-1 {
        mix-blend-mode: multiply;
        opacity: .08;
      }

      .cls-1, .cls-2 {
        fill: #ff8f4d;
      }

      .cls-3 {
        stroke: #fe7624;
      }

      .cls-3, .cls-4, .cls-5 {
        stroke-width: 6px;
      }

      .cls-3, .cls-4, .cls-5, .cls-6, .cls-7 {
        stroke-linecap: round;
        stroke-linejoin: round;
      }

      .cls-3, .cls-5, .cls-6, .cls-7 {
        fill: none;
      }

      .cls-8 {
        fill: #f7ccb7;
      }

      .cls-9, .cls-10 {
        fill: #262c33;
      }

      .cls-4, .cls-11 {
        fill: #fff;
      }

      .cls-4, .cls-5, .cls-6, .cls-10 {
        stroke: #262c33;
      }

      .cls-12 {
        isolation: isolate;
      }

      .cls-6 {
        stroke-width: 6.18px;
      }

      .cls-10 {
        stroke-miterlimit: 10;
      }

      .cls-7 {
        stroke: #ff8f4d;
      }

      .cls-13 {
        fill: #fe7624;
      }
    </style>
  </defs>
  <g class="cls-12">
    <g id="Layer_1" data-name="Layer 1">
      <g>
        <g>
          <path class="cls-8" d="M2381.87,0v388.63c-6.31,28.92-14.5,57.44-25.3,84.71-16.27,41.18-41.82,77.66-60.8,117.48-19.53,41.03-25.79,84.66-21.7,129.94,7.74,85.61,48.08,163.42,39.84,250.83-9.37,99.47-60.85,174.93-129.93,235.52-74.85,65.65-170.32,113.88-255.28,156.26-59.32,29.57-120.91,59.84-163.42,111.18-54.44,65.7-80.82,167.17-93.64,251.98-28.8,26.72-59.62,46.33-95.91,60.89-175,70.15-380.28,96.47-556.91,30.72-44.08-16.41-86.64-37.18-126.78-61.94-96.01-59.19-181.46-147.26-207-258.28-16.57-72.15-6.71-147.96-17.36-221.21-12.48-85.76-53.85-166.87-115.68-226.66-50.89-49.24-114.94-84.36-159.42-139.65-56.11-69.8-74.26-163.77-76.04-253.83-.84-42.88,1.58-85.76,4.04-128.64,2.66-47.18,5.33-94.32,3.65-141.5-2.61-75.1-16.32-149.76-40.48-220.76-19.87-58.44-47.34-115.18-88.46-160.81-1.48-1.65-2.96-3.25-4.49-4.85h2191.06Z"/>
          <path class="cls-1" d="M1223.18,4.22c-13.71,21.31-32.69,39.98-53.11,54.74-158.34,114.48-397.19,56.79-548.53,180.68-90.73,74.3-132.45,202.04-233.29,261.39-16.32,9.61-40.38,21.47-66.96,31.12,2.66-47.18,5.33-94.32,3.65-141.5-2.61-75.1-16.32-149.76-40.48-220.76-19.87-58.44-47.34-115.18-88.46-160.81-1.48-1.65-2.96-3.25-4.49-4.85h1031.67Z"/>
          <path class="cls-1" d="M2382.56,35.39v357.45c-6.31,28.92-14.5,57.44-25.3,84.71-16.27,41.18-41.82,77.66-60.8,117.48-19.53,41.03-25.79,84.66-21.7,129.94,7.74,85.61,48.08,163.42,39.84,250.83-9.37,99.47-60.85,174.93-129.93,235.52-97.54-17.01-207.99-62.9-269.88-111.18-95.71-74.7-156.96-190.34-260.01-254.13-105.43-65.3-237.38-65.8-352.57-110.98-54.44-21.32-105.03-52.74-148.52-92.27-23.42-21.27-45.32-45.63-56.41-75.5-19.48-52.44-1.43-113.63,34.07-156.56,35.55-42.88,86.05-70.15,137.33-90.92,155.58-63.05,326.88-74.8,494.29-68.7,125.35,4.55,250.1,2.85,375.3-4.8,183.58-11.16,203.65-167.22,244.28-210.9Z"/>
        </g>
        <g>
          <polygon class="cls-11" points="606.89 230.1 566.2 230.01 543.05 263.96 530.57 224.67 491.59 212.82 524.56 188.63 523.62 147.36 556.48 171.7 594.87 158.03 582.21 197.27 606.89 230.1"/>
          <polygon class="cls-11" points="2214.14 1022.03 2186.07 1008.69 2159.32 1024.58 2163.16 993.37 2139.99 972.46 2170.43 966.52 2182.87 937.71 2197.84 965.25 2228.69 968.34 2207.51 991.31 2214.14 1022.03"/>
        </g>
        <g>
          <polygon class="cls-11" points="2046.02 391.39 2033.22 375.42 2012.99 377.06 2024.01 359.77 2016.22 340.76 2035.83 346.05 2051.24 332.66 2052.34 353.22 2069.65 363.95 2050.73 371.37 2046.02 391.39"/>
          <polygon class="cls-11" points="1796.3 481.81 1786.65 483.88 1782.86 493.12 1777.93 484.45 1768.1 483.65 1774.71 476.21 1772.42 466.48 1781.43 470.56 1789.85 465.34 1788.81 475.29 1796.3 481.81"/>
          <polygon class="cls-11" points="2226.29 1095.12 2216.64 1097.2 2212.85 1106.44 2207.92 1097.76 2198.09 1096.96 2204.7 1089.53 2202.41 1079.79 2211.42 1083.87 2219.84 1078.65 2218.8 1088.61 2226.29 1095.12"/>
          <polygon class="cls-11" points="1662.63 226.32 1652.98 228.39 1649.19 237.63 1644.26 228.96 1634.43 228.16 1641.04 220.73 1638.75 210.99 1647.76 215.07 1656.18 209.85 1655.14 219.8 1662.63 226.32"/>
        </g>
        <path class="cls-7" d="M1555.72,1021.32c.08,0,.08-.13,0-.13"/>
        <g>
          <ellipse class="cls-11" cx="517.49" cy="740.92" rx="8.42" ry="8.55"/>
          <ellipse class="cls-11" cx="1001.22" cy="332.66" rx="8.42" ry="8.55"/>
        </g>
        <g>
          <ellipse class="cls-11" cx="602.04" cy="722.34" rx="8.42" ry="8.55"/>
          <ellipse class="cls-11" cx="699.92" cy="1032.33" rx="8.42" ry="8.55"/>
          <path class="cls-11" d="M1237.38,285.72c0,4.72-3.77,8.55-8.42,8.55s-8.42-3.83-8.42-8.55,3.77-8.55,8.42-8.55,8.42,3.83,8.42,8.55Z"/>
          <ellipse class="cls-11" cx="2041.32" cy="1170.78" rx="8.42" ry="8.55"/>
        </g>
        <ellipse class="cls-11" cx="1609.65" cy="740.92" rx="8.42" ry="8.55"/>
        <g>
          <path class="cls-2" d="M2022.57,1248.52c0,13.73-10.97,24.86-24.5,24.86s-24.5-11.13-24.5-24.86,10.97-24.86,24.5-24.86,24.5,11.13,24.5,24.86Z"/>
          <path class="cls-2" d="M1834.6,637.37c0,13.73-10.97,24.86-24.5,24.86s-24.5-11.13-24.5-24.86,10.97-24.86,24.5-24.86,24.5,11.13,24.5,24.86Z"/>
        </g>
        <path class="cls-2" d="M414.8,470.96c0,13.73-10.97,24.86-24.5,24.86s-24.5-11.13-24.5-24.86,10.97-24.86,24.5-24.86,24.5,11.13,24.5,24.86Z"/>
      </g>
      <g id="woman">
        <path id="body" class="cls-9" d="M1493.5,2007.9c12.65-3.86,18.43-18.47,11.84-29.94l-29.37-51.14c-34.56-78.96,8.94-213.46,8.94-213.46,136.31,66.45,309.27,52.17,309.27,52.17,0,0,47.8-36.04,110.49-163.38,62.69-127.34,46.99-182.16,15.03-200.15-31.96-17.99-133.09-52.04-140.32,2.2-7.23,54.25-79.63,194.23-79.63,194.23-123.95-87.62-257.91-141.95-257.91-141.95l-159.92-69.08s-65.25-31.72-157.06-36.89c-91.8-5.17-288.05-5.8-352.23,5.48-53.21,9.35-75.88,58.25-73.91,79.79s-5.47,67.18,110.56,124.53c74.63,36.89,127.37,75,155.5,97.5l3.89,260.3s5.22,63.11,6.72,92.87"/>
        <g id="parcel">
          <rect id="box" class="cls-4" x="896.67" y="1507.08" width="533.06" height="330.15" rx="13.66" ry="13.66" transform="translate(1523.09 -332.74) rotate(45)"/>
        </g>
        <g id="earring_back" data-name="earring back">
          <path class="cls-3" d="M1215.22,1315.1c-12.39-13.16-5.93-40.18,14.66-60.78,11.17-11.17,24.22-18.18,35.93-20.28"/>
          <path class="cls-3" d="M1536.45,1355.46c-3.32,5.7-7.63,11.32-12.84,16.53-20.84,20.84-48.25,27.2-61.23,14.22-1.05-1.05-1.98-2.2-2.78-3.43"/>
        </g>
        <path id="neck" class="cls-4" d="M1417.98,1386.53l-24.39,55.48,50.52,15.37c-.59,7.2-15.45,129.13-114.82,84.03-65.2-29.59-94.23-105.5-95.79-166.58l48,11.66,34.93-98.36,101.55,98.4Z"/>
        <g id="hand">
          <path id="thumb" class="cls-4" d="M1079.53,1620.27c11.3,2.56,64.62,24.81,74.92,32.96,10.3,8.15,8.31,19.33-4.65,17.85-12.96-1.48-41.69-5.08-41.69-5.08"/>
          <path id="hand-2" data-name="hand" class="cls-4" d="M1053.74,1597.97c64,38.85,95.6,108.65,98.38,115.76,2.78,7.11-5.15,18.38-16.81,7.91-11.66-10.47-44.26-54.03-44.26-54.03,12.25,21,39.2,68.4,39.1,73.85-.15,8.33-14.8,10.57-23.21-3.67l-35.67-59.22s25.54,65.51,26.41,72.33-25.59-1.69-37.74-32.17c-12.14-30.48-15.12-31.19-15.12-31.19,0,0,21.69,47.29,22.58,55.44s-35.19-2.6-42.77-41.04c0,0-36.85-15.7-51.05-44.39"/>
        </g>
        <g id="head">
          <ellipse id="ear_II" data-name="ear II" class="cls-4" cx="1299.28" cy="1223.12" rx="33.59" ry="35.32" transform="translate(-484.33 1276.98) rotate(-45)"/>
          <ellipse id="ear" class="cls-4" cx="1531.66" cy="1293.42" rx="33.59" ry="35.32" transform="translate(-465.97 1461.88) rotate(-45)"/>
          <path id="face" class="cls-4" d="M1526.99,1281.89c-17.79,77.05-80.47,126.11-139.98,109.56-59.51-16.54-93.33-92.41-75.54-169.46,17.79-77.05,80.47-126.11,139.98-109.56,59.51,16.54,93.33,92.41,75.54,169.46Z"/>
          <path id="mouth" class="cls-5" d="M1442.64,1316.51c-12.07,1.62-32.75.39-55.39-18.53-4.13-3.45-10.45-.8-10.75,4.58-.86,15.33,2.03,39.86,27.27,48.54,25.58,8.79,39.39-11.46,45.63-25.46,2.07-4.63-1.74-9.8-6.76-9.13Z"/>
          <polyline id="nose" class="cls-5" points="1417.39 1287.39 1441.75 1295.13 1447.02 1231.13"/>
          <path id="brow_II" data-name="brow II" class="cls-5" d="M1392.23,1181.79s23.37-9.62,33.48,8.89"/>
          <path id="brow" class="cls-5" d="M1474.95,1205.45s25.69-.46,28.7,20.11"/>
          <ellipse id="eye_II" data-name="eye II" class="cls-10" cx="1397.59" cy="1226.84" rx="12.7" ry="8.51" transform="translate(-254.25 2081.14) rotate(-68.62)"/>
          <ellipse id="eye" class="cls-10" cx="1476.56" cy="1259.82" rx="12.75" ry="8.48" transform="translate(-129.53 2349.71) rotate(-74.63)"/>
          <g id="hair">
            <path id="ponytail" class="cls-9" d="M1375.87,1045.14c46.89-7.55,137.15-127.33,90.49-262.95-47.22-137.28-171.86-86.17-201.5-71.04-29.64,15.12-76.68,74.44-28.23,178.41,48.45,103.97,85.68,164.21,139.24,155.58Z"/>
            <path id="shape" class="cls-13" d="M1360.51,1102.37l-9.96-46.95c-3.57-16.81,7.04-32.65,23.7-35.38l2.79-.46c16.65-2.73,33.05,8.69,36.61,25.51l9.96,46.95-63.1,10.33Z"/>
            <path id="hair-2" data-name="hair" class="cls-9" d="M1590.35,1234.73s77.14-110.64-130.78-154.84c-32.45-9.23-76.99-6.27-110.6,11.26-52.04,27.16-84.51,113.9-48.21,133.43,2.96,1.59,6.05,3.04,9.26,4.36.44-2.32.93-4.64,1.46-6.96,1.94-8.41,4.45-16.46,7.4-24.16,59.13-1.01,88.47-74.35,90.79-81.22,7.96,12.78,15.52,28.24,5.88,43.48l113.16,48.32c4.38,23,4.13,48.17-1.71,73.48-.07.32-.17.64-.24.96,16.33-11.66,25.42-35.6,25.4-64.42l38.19,16.31Z"/>
          </g>
        </g>
        <g id="hand_II" data-name="hand II">
          <path id="thumb-2" data-name="thumb" class="cls-4" d="M1917.98,1348.89c3.75-10.94,14.07-38.83,24.1-47.01,13.09-10.66,12.31-28.68-9.03-20.2-21.34,8.48-32.75,31.76-32.75,31.76"/>
          <path id="hand-3" data-name="hand" class="cls-4" d="M1850.6,1368.34l-15.97,63.69c21.99,13.14,50.58,20.53,80.82,11.32,4.98-41.48,12.41-110.17,8.04-118.59-12.04-23.22-40.64-48.47-47.57-52.15-14.73-7.82-15.66,5.06-4.79,17.81,10.41,12.21,29.03,34.47,29.03,34.47-18.02-17.31-41.36-37.94-46.9-39.03-8.46-1.67-13.93,12.34-1.36,23.77l34.62,33.67s-42.45-34.24-49.07-36.86c-6.63-2.62-19.3,11.01,8.15,30.77,27.46,19.76,27.51,22.94,27.51,22.94,0,0-34.61-22.56-42.56-25.53-7.95-2.97-16.58,16.38,20.05,33.74Z"/>
        </g>
        <g id="earring_front" data-name="earring front">
          <path class="cls-3" d="M1291.12,1240.11c12.98,12.98,6.62,40.4-14.22,61.23-20.84,20.84-48.25,27.2-61.23,14.22-.15-.15-.3-.3-.44-.46"/>
          <path class="cls-3" d="M1537.83,1310.76c9.74,9.74,8.59,27.59-1.38,44.7"/>
        </g>
        <path id="sleeve" class="cls-9" d="M772.64,1356c-54.39,1.5-75.88,58.25-73.91,79.79,1.97,21.54-5.47,67.18,110.56,124.53,74.63,36.89,127.37,75,155.5,97.5,0,0,82.39-35.66,112.34-97.93,0,0-85.29-88.08-176.49-126.18"/>
        <line class="cls-6" x1="1027.16" y1="1431.26" x2="1404.1" y2="1808.19"/>
        <line class="cls-6" x1="1103.95" y1="1846.36" x2="1337.4" y2="1612.91"/>
        <g>
          <path class="cls-6" d="M1272.91,1675.57c-6.34-10.79-12.71-21.63-17.38-32.93-4.67-11.29-7.59-23.16-6.67-34.1.49-5.79,2.13-11.38,5.89-15.17,3.75-3.79,9.89-5.48,15.9-3.22,5.92,2.22,10.78,7.87,13.25,13.74,2.48,5.87,2.9,11.96,2.74,17.74-.54,19.88-7.47,37.54-13.74,53.94Z"/>
          <path class="cls-6" d="M1274.55,1677.21c10.79,6.34,21.63,12.71,32.93,17.38,11.29,4.67,23.16,7.59,34.1,6.67,5.79-.49,11.38-2.13,15.17-5.89,3.79-3.75,5.48-9.89,3.22-15.9-2.22-5.92-7.87-10.78-13.74-13.25-5.87-2.48-11.96-2.9-17.74-2.74-19.88.54-37.54,7.47-53.94,13.74Z"/>
          <path class="cls-6" d="M1271.48,1677.01c-10.79-6.34-21.63-12.71-32.93-17.38-11.29-4.67-23.16-7.59-34.1-6.67-5.79.49-11.38,2.14-15.17,5.89-3.79,3.76-5.48,9.89-3.22,15.9,2.22,5.92,7.87,10.78,13.74,13.25,5.87,2.48,11.96,2.9,17.74,2.74,19.88-.54,37.54-7.47,53.94-13.74Z"/>
          <path class="cls-6" d="M1273.11,1678.64c6.34,10.79,12.71,21.63,17.38,32.93,4.67,11.29,7.59,23.16,6.67,34.1-.49,5.79-2.14,11.38-5.89,15.17-3.76,3.79-9.89,5.48-15.9,3.22-5.92-2.22-10.78-7.87-13.25-13.74-2.48-5.87-2.9-11.96-2.74-17.74.54-19.88,7.47-37.54,13.74-53.94Z"/>
        </g>
      </g>
      <g>
        <g>
          <path class="cls-11" d="M1648.58,1128.6c-13.44-20.47-21-43.49-21-67.82,0-85.92,94.35-155.58,210.66-155.58s210.58,69.66,210.58,155.58-94.26,155.58-210.58,155.58c-56.4,0-107.53-16.34-145.3-43.05l-72.57,18.45,28.2-63.16Z"/>
          <path class="cls-9" d="M1648.58,1128.6c-25.43-38-28.22-85.57-6.07-125.76,28.58-51.95,85.69-81.81,142.28-92.91,33.55-6.38,68.45-6.79,102.1-.91,55.57,9.72,111.46,37.22,142.65,85.8,25.62,39.3,26.29,90.17,1.2,129.9-30.41,49.11-86.07,77.16-141.54,87.39-16.7,3.04-34.11,4.54-51.05,4.57-51.13-.18-103.2-13.53-145.32-43.18.81.13-72.52,18.24-72.41,18.37-.75.39,28.31-63.12,28.17-63.27h0ZM1648.58,1128.6c-.1-.16-28.04,63.86-28.23,63.06.1-.03,72.54-18.57,72.64-18.59,18.65,13.13,39.46,23.05,61.14,30.04,32.47,10.49,67.04,14.4,101.07,12.37,76.9-4.35,164.29-43.63,188.53-122.26,13.54-44.41-3.67-92.78-36.28-124.4-36.5-36.26-87.02-55.69-137.57-61.49-28.2-3.08-57.08-2.06-84.95,3.25-56.46,10.98-113.39,40.75-142.04,92.46-22.23,40.01-19.56,87.59,5.7,125.56h0Z"/>
        </g>
        <g>
          <path class="cls-9" d="M1708.62,1080.31c0,1.25-.31,2.61-.93,4.07-.62,1.46-1.59,2.89-2.91,4.3-1.33,1.41-3.02,2.55-5.08,3.42-2.06.88-4.46,1.32-7.2,1.32-2.08,0-3.97-.2-5.67-.59-1.7-.39-3.25-1.01-4.63-1.84-1.39-.83-2.66-1.93-3.83-3.29-1.04-1.24-1.92-2.62-2.66-4.15-.73-1.53-1.28-3.16-1.65-4.9-.37-1.74-.55-3.58-.55-5.53,0-3.17.46-6.01,1.38-8.51.92-2.51,2.24-4.65,3.96-6.43,1.72-1.78,3.73-3.14,6.04-4.07,2.31-.93,4.77-1.4,7.39-1.4,3.19,0,6.02.64,8.51,1.91,2.49,1.27,4.4,2.84,5.72,4.71,1.32,1.87,1.99,3.64,1.99,5.3,0,.91-.32,1.72-.97,2.42-.64.7-1.42,1.05-2.34,1.05-1.02,0-1.79-.24-2.3-.73-.51-.48-1.08-1.32-1.71-2.5-1.04-1.95-2.26-3.41-3.67-4.38-1.41-.97-3.14-1.45-5.2-1.45-3.28,0-5.89,1.24-7.83,3.73-1.94,2.49-2.91,6.03-2.91,10.61,0,3.06.43,5.61,1.29,7.64.86,2.03,2.08,3.55,3.65,4.55,1.58,1,3.42,1.5,5.53,1.5,2.29,0,4.23-.57,5.81-1.71,1.58-1.14,2.78-2.81,3.59-5.01.34-1.04.76-1.88,1.26-2.54.5-.65,1.31-.98,2.42-.98.95,0,1.76.33,2.44.99.68.66,1.02,1.49,1.02,2.47Z"/>
          <path class="cls-9" d="M1733.11,1052.7c4.08,0,7.59.83,10.51,2.48,2.93,1.66,5.14,4.01,6.65,7.06,1.5,3.05,2.26,6.64,2.26,10.76,0,3.04-.41,5.81-1.24,8.3-.82,2.49-2.06,4.65-3.71,6.47-1.65,1.83-3.67,3.22-6.07,4.19-2.4.97-5.15,1.45-8.25,1.45s-5.84-.5-8.27-1.49c-2.44-.99-4.47-2.39-6.1-4.2-1.63-1.81-2.86-3.98-3.69-6.53-.83-2.54-1.25-5.29-1.25-8.25s.43-5.8,1.3-8.33c.87-2.52,2.13-4.67,3.77-6.45,1.65-1.77,3.65-3.13,6.02-4.07,2.36-.94,5.05-1.41,8.06-1.41ZM1744.45,1072.95c0-2.88-.47-5.38-1.4-7.49-.93-2.11-2.26-3.71-3.99-4.79-1.73-1.08-3.71-1.62-5.95-1.62-1.59,0-3.07.3-4.42.9-1.35.6-2.52,1.47-3.49,2.62-.98,1.15-1.75,2.61-2.31,4.39-.56,1.78-.85,3.78-.85,6s.28,4.26.85,6.07c.56,1.81,1.36,3.31,2.39,4.5,1.03,1.19,2.21,2.08,3.55,2.67,1.33.59,2.8.89,4.39.89,2.04,0,3.92-.51,5.63-1.53,1.71-1.02,3.07-2.6,4.08-4.73,1.01-2.13,1.52-4.75,1.52-7.87Z"/>
          <path class="cls-9" d="M1769.75,1057.48l15.34,23.21v-23.42c0-1.52.33-2.66.98-3.42.65-.76,1.54-1.14,2.65-1.14s2.05.38,2.71,1.14c.66.76.99,1.9.99,3.42v30.97c0,3.46-1.43,5.18-4.3,5.18-.72,0-1.36-.1-1.93-.31-.57-.21-1.11-.53-1.61-.98-.5-.45-.97-.97-1.4-1.57-.43-.6-.86-1.21-1.29-1.84l-14.96-22.94v23.07c0,1.5-.35,2.64-1.05,3.41-.7.77-1.59,1.15-2.69,1.15s-2.03-.39-2.71-1.17c-.68-.78-1.02-1.91-1.02-3.4v-30.38c0-1.29.14-2.3.43-3.03.34-.81.9-1.46,1.69-1.97.79-.51,1.64-.77,2.55-.77.72,0,1.33.12,1.84.35.51.23.96.55,1.34.94.38.39.78.9,1.18,1.53.4.63.82,1.28,1.25,1.96Z"/>
          <path class="cls-9" d="M1837.11,1076.73v7.55c0,1-.1,1.8-.3,2.4-.2.6-.56,1.14-1.09,1.62-.53.48-1.2.95-2.03,1.4-2.38,1.29-4.67,2.23-6.88,2.82-2.2.59-4.6.89-7.2.89-3.03,0-5.78-.47-8.27-1.4-2.49-.93-4.61-2.28-6.37-4.06-1.75-1.77-3.1-3.92-4.04-6.45-.94-2.52-1.41-5.34-1.41-8.46s.46-5.86,1.37-8.41c.91-2.54,2.26-4.7,4.03-6.47,1.77-1.77,3.93-3.13,6.47-4.07,2.54-.94,5.43-1.41,8.65-1.41,2.65,0,5,.35,7.04,1.06,2.04.71,3.7,1.6,4.97,2.67,1.27,1.07,2.23,2.21,2.87,3.41.64,1.2.97,2.27.97,3.2,0,1-.37,1.86-1.11,2.56-.74.71-1.63,1.06-2.67,1.06-.57,0-1.12-.13-1.65-.4-.53-.27-.97-.64-1.33-1.13-.98-1.54-1.82-2.7-2.5-3.49-.68-.79-1.6-1.45-2.75-1.99-1.15-.54-2.63-.81-4.42-.81s-3.49.32-4.94.95c-1.45.64-2.69,1.56-3.72,2.77-1.03,1.21-1.82,2.69-2.36,4.44-.55,1.76-.82,3.7-.82,5.83,0,4.62,1.06,8.17,3.18,10.66,2.12,2.49,5.08,3.73,8.88,3.73,1.84,0,3.58-.24,5.2-.73,1.62-.48,3.26-1.17,4.93-2.07v-6.39h-6.18c-1.49,0-2.61-.22-3.37-.67-.76-.45-1.14-1.21-1.14-2.28,0-.88.32-1.6.95-2.18.64-.57,1.5-.86,2.59-.86h9.05c1.11,0,2.05.1,2.82.3.77.2,1.39.64,1.87,1.32.47.68.71,1.7.71,3.06Z"/>
          <path class="cls-9" d="M1855.42,1075.9h-2.79v12.65c0,1.67-.37,2.89-1.1,3.68-.73.79-1.69,1.18-2.87,1.18-1.27,0-2.26-.41-2.95-1.24-.7-.82-1.05-2.03-1.05-3.63v-30.3c0-1.72.38-2.96,1.16-3.73.77-.77,2.01-1.15,3.73-1.15h12.97c1.79,0,3.32.08,4.59.23,1.27.15,2.42.46,3.44.93,1.24.52,2.33,1.26,3.28,2.23.95.97,1.67,2.09,2.16,3.37.49,1.28.74,2.64.74,4.07,0,2.94-.83,5.28-2.48,7.04-1.66,1.75-4.17,3-7.53,3.73,1.41.75,2.77,1.86,4.06,3.33,1.29,1.47,2.44,3.03,3.45,4.69,1.01,1.66,1.8,3.15,2.36,4.49.56,1.33.85,2.25.85,2.75s-.17,1.03-.5,1.54c-.33.51-.78.91-1.36,1.21-.57.3-1.24.44-1.99.44-.9,0-1.65-.21-2.26-.63-.61-.42-1.13-.95-1.57-1.6-.44-.64-1.03-1.59-1.79-2.85l-3.2-5.32c-1.15-1.95-2.17-3.44-3.08-4.46-.9-1.02-1.82-1.72-2.75-2.09-.93-.38-2.1-.56-3.52-.56ZM1859.99,1059.36h-7.36v10.82h7.14c1.92,0,3.53-.17,4.83-.5,1.31-.33,2.31-.9,2.99-1.69.69-.8,1.03-1.89,1.03-3.29,0-1.09-.28-2.05-.83-2.89-.56-.83-1.33-1.45-2.31-1.87-.93-.39-2.77-.59-5.51-.59Z"/>
          <path class="cls-9" d="M1909.46,1088.28l-1.88-4.94h-16.01l-1.88,5.05c-.73,1.97-1.36,3.3-1.88,3.99-.52.69-1.37,1.03-2.55,1.03-1,0-1.89-.37-2.66-1.1-.77-.73-1.15-1.57-1.15-2.5,0-.54.09-1.09.27-1.67.18-.57.47-1.37.89-2.39l10.07-25.57c.29-.73.63-1.62,1.03-2.65.4-1.03.83-1.88,1.29-2.56.46-.68,1.06-1.23,1.8-1.65.74-.42,1.66-.63,2.75-.63s2.04.21,2.78.63c.74.42,1.34.96,1.8,1.62.46.66.84,1.37,1.15,2.14.31.76.71,1.78,1.2,3.05l10.29,25.41c.81,1.93,1.21,3.34,1.21,4.22s-.38,1.75-1.14,2.51c-.76.76-1.68,1.14-2.75,1.14-.63,0-1.16-.11-1.61-.34-.45-.22-.82-.53-1.13-.91-.3-.38-.63-.98-.98-1.77-.35-.8-.65-1.5-.9-2.11ZM1893.67,1077.35h11.76l-5.94-16.25-5.83,16.25Z"/>
          <path class="cls-9" d="M1944.57,1059.95h-8.7v28.6c0,1.65-.37,2.87-1.1,3.67-.73.8-1.68,1.2-2.85,1.2s-2.14-.4-2.89-1.21c-.74-.81-1.11-2.02-1.11-3.65v-28.6h-8.7c-1.36,0-2.37-.3-3.03-.9-.66-.6-.99-1.39-.99-2.38s.34-1.83,1.03-2.42c.69-.59,1.69-.89,2.99-.89h25.35c1.38,0,2.4.3,3.08.91.67.61,1.01,1.41,1.01,2.39s-.34,1.78-1.02,2.38c-.68.6-1.7.9-3.06.9Z"/>
          <path class="cls-9" d="M1983.29,1080.92c0,2.38-.61,4.52-1.84,6.42-1.23,1.9-3.02,3.38-5.38,4.46-2.36,1.07-5.17,1.61-8.41,1.61-3.89,0-7.09-.73-9.62-2.2-1.79-1.06-3.25-2.47-4.36-4.23-1.12-1.76-1.68-3.48-1.68-5.14,0-.97.34-1.79,1.01-2.48.67-.69,1.53-1.03,2.56-1.03.84,0,1.55.27,2.14.81.58.54,1.08,1.33,1.49,2.39.5,1.25,1.04,2.3,1.62,3.14.58.84,1.4,1.54,2.46,2.08,1.06.55,2.44.82,4.16.82,2.36,0,4.28-.55,5.76-1.65,1.48-1.1,2.22-2.47,2.22-4.12,0-1.31-.4-2.37-1.2-3.18-.8-.81-1.83-1.44-3.09-1.87-1.26-.43-2.95-.89-5.06-1.37-2.83-.66-5.2-1.44-7.1-2.32-1.91-.89-3.42-2.09-4.54-3.63-1.12-1.53-1.68-3.43-1.68-5.71s.59-4.09,1.77-5.77c1.18-1.68,2.89-2.98,5.13-3.88,2.24-.9,4.87-1.36,7.9-1.36,2.42,0,4.51.3,6.27.9,1.76.6,3.23,1.4,4.39,2.39,1.16.99,2.01,2.04,2.55,3.13.54,1.09.81,2.16.81,3.2,0,.95-.34,1.8-1.01,2.56-.67.76-1.51,1.14-2.51,1.14-.91,0-1.61-.23-2.08-.68-.47-.46-.99-1.2-1.54-2.24-.72-1.49-1.58-2.65-2.58-3.48-1-.83-2.61-1.25-4.83-1.25-2.06,0-3.72.45-4.98,1.36-1.26.9-1.89,1.99-1.89,3.26,0,.79.21,1.47.64,2.04.43.57,1.02,1.07,1.77,1.48.75.41,1.51.73,2.28.97.77.23,2.04.57,3.81,1.02,2.22.52,4.23,1.09,6.03,1.72,1.8.63,3.33,1.39,4.59,2.28,1.26.9,2.25,2.03,2.95,3.4.71,1.37,1.06,3.05,1.06,5.04Z"/>
          <path class="cls-9" d="M1991.97,1075.69l-.86-12.86c-.16-2.51-.24-4.31-.24-5.4,0-1.49.39-2.65,1.17-3.48.78-.83,1.8-1.25,3.08-1.25,1.54,0,2.57.53,3.09,1.6.52,1.07.78,2.6.78,4.61,0,1.18-.06,2.38-.19,3.6l-1.15,13.24c-.13,1.58-.39,2.78-.81,3.63-.41.84-1.09,1.26-2.04,1.26s-1.64-.41-2.01-1.22c-.38-.81-.64-2.05-.81-3.72ZM1994.95,1093.36c-1.09,0-2.05-.35-2.86-1.06-.81-.71-1.22-1.7-1.22-2.97,0-1.11.39-2.05,1.17-2.83.78-.78,1.73-1.17,2.86-1.17s2.09.39,2.89,1.17c.8.78,1.2,1.72,1.2,2.83,0,1.25-.4,2.24-1.21,2.95-.81.72-1.75,1.07-2.82,1.07Z"/>
        </g>
      </g>
    </g>
  </g>
</svg>